<svg width="23" height="22" viewBox="0 0 23 22" fill="none" xmlns="http://www.w3.org/2000/svg">
<path d="M18.225 17.6C18.8085 17.6 19.3681 17.8318 19.7806 18.2444C20.1932 18.6569 20.425 19.2165 20.425 19.8C20.425 20.3835 20.1932 20.9431 19.7806 21.3556C19.3681 21.7682 18.8085 22 18.225 22C17.6415 22 17.0819 21.7682 16.6694 21.3556C16.2568 20.9431 16.025 20.3835 16.025 19.8C16.025 18.579 17.004 17.6 18.225 17.6ZM0.625 0H4.222L5.256 2.2H21.525C21.8167 2.2 22.0965 2.31589 22.3028 2.52218C22.5091 2.72847 22.625 3.00826 22.625 3.3C22.625 3.487 22.57 3.674 22.493 3.85L18.555 10.967C18.181 11.638 17.455 12.1 16.63 12.1H8.435L7.445 13.893L7.412 14.025C7.412 14.0979 7.44097 14.1679 7.49255 14.2195C7.54412 14.271 7.61407 14.3 7.687 14.3H20.425V16.5H7.225C6.64152 16.5 6.08194 16.2682 5.66936 15.8556C5.25678 15.4431 5.025 14.8835 5.025 14.3C5.025 13.915 5.124 13.552 5.289 13.244L6.785 10.549L2.825 2.2H0.625V0ZM7.225 17.6C7.80848 17.6 8.36805 17.8318 8.78063 18.2444C9.19321 18.6569 9.425 19.2165 9.425 19.8C9.425 20.3835 9.19321 20.9431 8.78063 21.3556C8.36805 21.7682 7.80848 22 7.225 22C6.64152 22 6.08194 21.7682 5.66936 21.3556C5.25678 20.9431 5.025 20.3835 5.025 19.8C5.025 18.579 6.004 17.6 7.225 17.6ZM17.125 9.9L20.183 4.4H6.279L8.875 9.9H17.125Z" fill="#3F80FF"/>
</svg>
