<svg width="21" height="20" viewBox="0 0 21 20" fill="none" xmlns="http://www.w3.org/2000/svg">
<path d="M18.4211 15.7895C18.8265 15.7897 19.2164 15.9459 19.5099 16.2257C19.8033 16.5055 19.9779 16.8875 19.9974 17.2925C20.0169 17.6975 19.8798 18.0945 19.6146 18.4012C19.3493 18.708 18.9762 18.9009 18.5726 18.94L18.4211 18.9473H1.57895C1.17346 18.9471 0.783584 18.791 0.490119 18.5111C0.196654 18.2313 0.0220926 17.8493 0.00260604 17.4443C-0.0168805 17.0393 0.120202 16.6423 0.385448 16.3356C0.650694 16.0289 1.02377 15.836 1.42737 15.7968L1.57895 15.7895H18.4211ZM18.4211 8.42103C18.8398 8.42103 19.2414 8.58739 19.5375 8.8835C19.8336 9.17961 20 9.58122 20 9.99998C20 10.4187 19.8336 10.8204 19.5375 11.1165C19.2414 11.4126 18.8398 11.5789 18.4211 11.5789H1.57895C1.16018 11.5789 0.758573 11.4126 0.462463 11.1165C0.166353 10.8204 0 10.4187 0 9.99998C0 9.58122 0.166353 9.17961 0.462463 8.8835C0.758573 8.58739 1.16018 8.42103 1.57895 8.42103H18.4211ZM18.4211 1.05261C18.8398 1.05261 19.2414 1.21897 19.5375 1.51508C19.8336 1.81119 20 2.2128 20 2.63156C20 3.05032 19.8336 3.45193 19.5375 3.74804C19.2414 4.04415 18.8398 4.21051 18.4211 4.21051H1.57895C1.16018 4.21051 0.758573 4.04415 0.462463 3.74804C0.166353 3.45193 0 3.05032 0 2.63156C0 2.2128 0.166353 1.81119 0.462463 1.51508C0.758573 1.21897 1.16018 1.05261 1.57895 1.05261H18.4211Z" fill="#67687E"/>
</svg>
